<svg xmlns="http://www.w3.org/2000/svg" version="1.1" xmlns:xlink="http://www.w3.org/1999/xlink" xmlns:svgjs="http://svgjs.com/svgjs" width="512" height="512" x="0" y="0" viewBox="0 0 24 24" style="enable-background:new 0 0 512 512" xml:space="preserve" class=""><g transform="matrix(1,0,0,1,1.7763568394002505e-15,0)"><g fill="#292d32"><path d="M12 22.01c5.523 0 10-4.477 10-10s-4.477-10-10-10-10 4.477-10 10 4.477 10 10 10z" opacity=".4" fill="#00004b" data-original="#292d32" class=""></path><path d="M12 6.94c-2.07 0-3.75 1.68-3.75 3.75 0 2.03 1.59 3.68 3.7 3.74h.18a3.743 3.743 0 0 0 3.62-3.74c0-2.07-1.68-3.75-3.75-3.75zM18.78 19.36C17 21 14.62 22.01 12 22.01S7 21 5.22 19.36c.24-.91.89-1.74 1.84-2.38 2.73-1.82 7.17-1.82 9.88 0 .96.64 1.6 1.47 1.84 2.38z" fill="#00004b" data-original="#292d32" class=""></path></g></g></svg>